solid OpenSCAD_Model
  facet normal -1 2.22045e-016 2.53982e-033
    outer loop
      vertex -10.5 -10.5 -0.5
      vertex -10.5 -0.5 -0.5
      vertex -10.5 -10.5 -10.5
    endloop
  endfacet
  facet normal -1 2.22045e-016 2.53982e-033
    outer loop
      vertex -10.5 -10.5 -10.5
      vertex -10.5 -0.5 -0.5
      vertex -10.5 -0.5 -10.5
    endloop
  endfacet
  facet normal -2.71917e-032 -1.22461e-016 1
    outer loop
      vertex -10.5 -0.5 -0.5
      vertex -10.5 -10.5 -0.5
      vertex -0.5 -10.5 -0.5
    endloop
  endfacet
  facet normal -2.71917e-032 -1.22461e-016 1
    outer loop
      vertex -1.5 -1.5 -0.5
      vertex -10.5 -0.5 -0.5
      vertex -0.5 -10.5 -0.5
    endloop
  endfacet
  facet normal -2.71917e-032 -1.22461e-016 1
    outer loop
      vertex -0.5 -1.5 -0.5
      vertex -1.5 -1.5 -0.5
      vertex -0.5 -10.5 -0.5
    endloop
  endfacet
  facet normal -2.71917e-032 -1.22461e-016 1
    outer loop
      vertex -1.5 -1.5 -0.5
      vertex -1.5 -0.5 -0.5
      vertex -10.5 -0.5 -0.5
    endloop
  endfacet
  facet normal -2.22045e-016 -1 -1.22461e-016
    outer loop
      vertex -0.5 -10.5 -0.5
      vertex -10.5 -10.5 -0.5
      vertex -10.5 -10.5 -10.5
    endloop
  endfacet
  facet normal -2.22045e-016 -1 -1.22461e-016
    outer loop
      vertex -0.5 -10.5 -10.5
      vertex -0.5 -10.5 -0.5
      vertex -10.5 -10.5 -10.5
    endloop
  endfacet
  facet normal 2.71917e-032 1.22461e-016 -1
    outer loop
      vertex -10.5 -10.5 -10.5
      vertex -10.5 -0.5 -10.5
      vertex -0.5 -10.5 -10.5
    endloop
  endfacet
  facet normal 2.71917e-032 1.22461e-016 -1
    outer loop
      vertex -0.5 -10.5 -10.5
      vertex -10.5 -0.5 -10.5
      vertex -0.5 -0.5 -10.5
    endloop
  endfacet
  facet normal 2.22045e-016 1 1.22461e-016
    outer loop
      vertex -10.5 -0.5 -0.5
      vertex -1.5 -0.5 -0.5
      vertex -10.5 -0.5 -10.5
    endloop
  endfacet
  facet normal 2.22045e-016 1 1.22461e-016
    outer loop
      vertex -10.5 -0.5 -10.5
      vertex -1.5 -0.5 -0.5
      vertex -1.5 -0.5 -1.5
    endloop
  endfacet
  facet normal 2.22045e-016 1 1.22461e-016
    outer loop
      vertex -10.5 -0.5 -10.5
      vertex -1.5 -0.5 -1.5
      vertex -0.5 -0.5 -1.5
    endloop
  endfacet
  facet normal 2.22045e-016 1 1.22461e-016
    outer loop
      vertex -10.5 -0.5 -10.5
      vertex -0.5 -0.5 -1.5
      vertex -0.5 -0.5 -10.5
    endloop
  endfacet
  facet normal -1 0 0
    outer loop
      vertex -1.5 -1.5 -0.5
      vertex -1.5 -1.5 0.5
      vertex -1.5 -0.5 -0.5
    endloop
  endfacet
  facet normal -1 0 0
    outer loop
      vertex -1.5 -0.5 -0.5
      vertex -1.5 -1.5 0.5
      vertex -1.5 -0.5 0.5
    endloop
  endfacet
  facet normal -1 0 0
    outer loop
      vertex -1.5 -0.5 -0.5
      vertex -1.5 -0.5 0.5
      vertex -1.5 -0.5 1.5
    endloop
  endfacet
  facet normal -1 0 0
    outer loop
      vertex -1.5 -0.5 -0.5
      vertex -1.5 -0.5 1.5
      vertex -1.5 0.5 1.5
    endloop
  endfacet
  facet normal -1 0 0
    outer loop
      vertex -1.5 -0.5 -0.5
      vertex -1.5 0.5 1.5
      vertex -1.5 0.5 0.5
    endloop
  endfacet
  facet normal -1 0 0
    outer loop
      vertex -1.5 -0.5 -0.5
      vertex -1.5 0.5 0.5
      vertex -1.5 1.5 0.5
    endloop
  endfacet
  facet normal -1 0 0
    outer loop
      vertex -1.5 -0.5 -0.5
      vertex -1.5 1.5 0.5
      vertex -1.5 1.5 -0.5
    endloop
  endfacet
  facet normal -1 0 0
    outer loop
      vertex -1.5 -0.5 -0.5
      vertex -1.5 1.5 -0.5
      vertex -1.5 0.5 -0.5
    endloop
  endfacet
  facet normal -1 0 0
    outer loop
      vertex -1.5 -0.5 -0.5
      vertex -1.5 0.5 -0.5
      vertex -1.5 0.5 -1.5
    endloop
  endfacet
  facet normal -1 0 0
    outer loop
      vertex -1.5 -0.5 -0.5
      vertex -1.5 0.5 -1.5
      vertex -1.5 -0.5 -1.5
    endloop
  endfacet
  facet normal 0 -1 0
    outer loop
      vertex 0.5 -1.5 -0.5
      vertex 1.5 -1.5 -0.5
      vertex -1.5 -1.5 0.5
    endloop
  endfacet
  facet normal 0 -1 0
    outer loop
      vertex -1.5 -1.5 0.5
      vertex -1.5 -1.5 -0.5
      vertex -0.5 -1.5 -0.5
    endloop
  endfacet
  facet normal 0 -1 0
    outer loop
      vertex 0.5 -1.5 -1.5
      vertex -1.5 -1.5 0.5
      vertex -0.5 -1.5 -0.5
    endloop
  endfacet
  facet normal 0 -1 0
    outer loop
      vertex -0.5 -1.5 -1.5
      vertex 0.5 -1.5 -1.5
      vertex -0.5 -1.5 -0.5
    endloop
  endfacet
  facet normal 0 -1 0
    outer loop
      vertex 0.5 -1.5 -1.5
      vertex 0.5 -1.5 -0.5
      vertex -1.5 -1.5 0.5
    endloop
  endfacet
  facet normal 0 -1 0
    outer loop
      vertex 1.5 -1.5 -0.5
      vertex 0.5 -1.5 0.5
      vertex -0.5 -1.5 0.5
    endloop
  endfacet
  facet normal 0 -1 0
    outer loop
      vertex 1.5 -1.5 -0.5
      vertex 1.5 -1.5 0.5
      vertex 0.5 -1.5 0.5
    endloop
  endfacet
  facet normal 0 -1 0
    outer loop
      vertex 1.5 -1.5 -0.5
      vertex -0.5 -1.5 0.5
      vertex -1.5 -1.5 0.5
    endloop
  endfacet
  facet normal 0 -1 0
    outer loop
      vertex 0.5 -1.5 0.5
      vertex 0.5 -1.5 1.5
      vertex -0.5 -1.5 0.5
    endloop
  endfacet
  facet normal 0 -1 0
    outer loop
      vertex -0.5 -1.5 1.5
      vertex -0.5 -1.5 0.5
      vertex 0.5 -1.5 1.5
    endloop
  endfacet
  facet normal 1 -2.22045e-016 -2.53982e-033
    outer loop
      vertex -0.5 -1.5 -0.5
      vertex -0.5 -10.5 -0.5
      vertex -0.5 -10.5 -10.5
    endloop
  endfacet
  facet normal 1 -2.22045e-016 -2.53982e-033
    outer loop
      vertex -0.5 -1.5 -1.5
      vertex -0.5 -1.5 -0.5
      vertex -0.5 -10.5 -10.5
    endloop
  endfacet
  facet normal 1 -2.22045e-016 -2.53982e-033
    outer loop
      vertex -0.5 -0.5 -10.5
      vertex -0.5 -1.5 -1.5
      vertex -0.5 -10.5 -10.5
    endloop
  endfacet
  facet normal 1 -2.22045e-016 -2.53982e-033
    outer loop
      vertex -0.5 -0.5 -1.5
      vertex -0.5 -1.5 -1.5
      vertex -0.5 -0.5 -10.5
    endloop
  endfacet
  facet normal 0 0 -1
    outer loop
      vertex -1.5 -0.5 -1.5
      vertex -1.5 0.5 -1.5
      vertex -0.5 -0.5 -1.5
    endloop
  endfacet
  facet normal 0 0 -1
    outer loop
      vertex -0.5 -0.5 -1.5
      vertex -1.5 0.5 -1.5
      vertex -0.5 0.5 -1.5
    endloop
  endfacet
  facet normal 0 0 -1
    outer loop
      vertex -0.5 0.5 -1.5
      vertex -0.5 1.5 -1.5
      vertex 0.5 1.5 -1.5
    endloop
  endfacet
  facet normal 0 0 -1
    outer loop
      vertex -0.5 0.5 -1.5
      vertex 0.5 1.5 -1.5
      vertex -0.5 -0.5 -1.5
    endloop
  endfacet
  facet normal 0 0 -1
    outer loop
      vertex -0.5 -0.5 -1.5
      vertex 0.5 1.5 -1.5
      vertex 0.5 0.5 -1.5
    endloop
  endfacet
  facet normal 0 0 -1
    outer loop
      vertex -0.5 -0.5 -1.5
      vertex 0.5 0.5 -1.5
      vertex 1.5 0.5 -1.5
    endloop
  endfacet
  facet normal 0 0 -1
    outer loop
      vertex -0.5 -0.5 -1.5
      vertex 1.5 0.5 -1.5
      vertex 1.5 -0.5 -1.5
    endloop
  endfacet
  facet normal 0 0 -1
    outer loop
      vertex -0.5 -0.5 -1.5
      vertex 1.5 -0.5 -1.5
      vertex 0.5 -0.5 -1.5
    endloop
  endfacet
  facet normal 0 0 -1
    outer loop
      vertex -0.5 -0.5 -1.5
      vertex 0.5 -0.5 -1.5
      vertex 0.5 -1.5 -1.5
    endloop
  endfacet
  facet normal 0 0 -1
    outer loop
      vertex -0.5 -0.5 -1.5
      vertex 0.5 -1.5 -1.5
      vertex -0.5 -1.5 -1.5
    endloop
  endfacet
  facet normal 0 -1 0
    outer loop
      vertex -1.5 0.5 -0.5
      vertex -10.5 0.5 -0.5
      vertex -10.5 0.5 -10.5
    endloop
  endfacet
  facet normal 0 -1 0
    outer loop
      vertex -1.5 0.5 -1.5
      vertex -1.5 0.5 -0.5
      vertex -10.5 0.5 -10.5
    endloop
  endfacet
  facet normal 0 -1 0
    outer loop
      vertex -0.5 0.5 -10.5
      vertex -1.5 0.5 -1.5
      vertex -10.5 0.5 -10.5
    endloop
  endfacet
  facet normal 0 -1 0
    outer loop
      vertex -0.5 0.5 -1.5
      vertex -1.5 0.5 -1.5
      vertex -0.5 0.5 -10.5
    endloop
  endfacet
  facet normal -1.22461e-016 0 1
    outer loop
      vertex -10.5 10.5 -0.5
      vertex -10.5 0.5 -0.5
      vertex -1.5 0.5 -0.5
    endloop
  endfacet
  facet normal -1.22461e-016 0 1
    outer loop
      vertex -0.5 1.5 -0.5
      vertex -10.5 10.5 -0.5
      vertex -1.5 1.5 -0.5
    endloop
  endfacet
  facet normal -1.22461e-016 0 1
    outer loop
      vertex -1.5 1.5 -0.5
      vertex -10.5 10.5 -0.5
      vertex -1.5 0.5 -0.5
    endloop
  endfacet
  facet normal -1.22461e-016 0 1
    outer loop
      vertex -0.5 10.5 -0.5
      vertex -10.5 10.5 -0.5
      vertex -0.5 1.5 -0.5
    endloop
  endfacet
  facet normal 0 1 0
    outer loop
      vertex -1.5 1.5 -0.5
      vertex -1.5 1.5 0.5
      vertex -0.5 1.5 -0.5
    endloop
  endfacet
  facet normal 0 1 0
    outer loop
      vertex -0.5 1.5 -0.5
      vertex -1.5 1.5 0.5
      vertex -0.5 1.5 0.5
    endloop
  endfacet
  facet normal 0 1 0
    outer loop
      vertex -0.5 1.5 0.5
      vertex -0.5 1.5 1.5
      vertex 0.5 1.5 1.5
    endloop
  endfacet
  facet normal 0 1 0
    outer loop
      vertex -0.5 1.5 0.5
      vertex 0.5 1.5 1.5
      vertex -0.5 1.5 -0.5
    endloop
  endfacet
  facet normal 0 1 0
    outer loop
      vertex -0.5 1.5 -0.5
      vertex 0.5 1.5 1.5
      vertex 0.5 1.5 0.5
    endloop
  endfacet
  facet normal 0 1 0
    outer loop
      vertex -0.5 1.5 -0.5
      vertex 0.5 1.5 0.5
      vertex 1.5 1.5 0.5
    endloop
  endfacet
  facet normal 0 1 0
    outer loop
      vertex -0.5 1.5 -0.5
      vertex 1.5 1.5 0.5
      vertex 1.5 1.5 -0.5
    endloop
  endfacet
  facet normal 0 1 0
    outer loop
      vertex -0.5 1.5 -0.5
      vertex 1.5 1.5 -0.5
      vertex 0.5 1.5 -0.5
    endloop
  endfacet
  facet normal 0 1 0
    outer loop
      vertex -0.5 1.5 -0.5
      vertex 0.5 1.5 -0.5
      vertex 0.5 1.5 -1.5
    endloop
  endfacet
  facet normal 0 1 0
    outer loop
      vertex -0.5 1.5 -0.5
      vertex 0.5 1.5 -1.5
      vertex -0.5 1.5 -1.5
    endloop
  endfacet
  facet normal 0 0 -1
    outer loop
      vertex -10.5 0.5 0.5
      vertex -10.5 10.5 0.5
      vertex -1.5 0.5 0.5
    endloop
  endfacet
  facet normal 0 0 -1
    outer loop
      vertex -1.5 1.5 0.5
      vertex -10.5 10.5 0.5
      vertex -0.5 10.5 0.5
    endloop
  endfacet
  facet normal 0 0 -1
    outer loop
      vertex -1.5 0.5 0.5
      vertex -10.5 10.5 0.5
      vertex -1.5 1.5 0.5
    endloop
  endfacet
  facet normal 0 0 -1
    outer loop
      vertex -1.5 1.5 0.5
      vertex -0.5 10.5 0.5
      vertex -0.5 1.5 0.5
    endloop
  endfacet
  facet normal -2.22045e-016 -1 0
    outer loop
      vertex -10.5 0.5 10.5
      vertex -10.5 0.5 0.5
      vertex -1.5 0.5 0.5
    endloop
  endfacet
  facet normal -2.22045e-016 -1 0
    outer loop
      vertex -0.5 0.5 1.5
      vertex -10.5 0.5 10.5
      vertex -1.5 0.5 1.5
    endloop
  endfacet
  facet normal -2.22045e-016 -1 0
    outer loop
      vertex -1.5 0.5 1.5
      vertex -10.5 0.5 10.5
      vertex -1.5 0.5 0.5
    endloop
  endfacet
  facet normal -2.22045e-016 -1 0
    outer loop
      vertex -0.5 0.5 10.5
      vertex -10.5 0.5 10.5
      vertex -0.5 0.5 1.5
    endloop
  endfacet
  facet normal 0 0 1
    outer loop
      vertex -1.5 0.5 1.5
      vertex -1.5 -0.5 1.5
      vertex -0.5 -0.5 1.5
    endloop
  endfacet
  facet normal 0 0 1
    outer loop
      vertex 0.5 -0.5 1.5
      vertex -1.5 0.5 1.5
      vertex -0.5 -0.5 1.5
    endloop
  endfacet
  facet normal 0 0 1
    outer loop
      vertex -0.5 -1.5 1.5
      vertex 0.5 -1.5 1.5
      vertex -0.5 -0.5 1.5
    endloop
  endfacet
  facet normal 0 0 1
    outer loop
      vertex 0.5 -1.5 1.5
      vertex 0.5 -0.5 1.5
      vertex -0.5 -0.5 1.5
    endloop
  endfacet
  facet normal 0 0 1
    outer loop
      vertex 0.5 -0.5 1.5
      vertex 1.5 -0.5 1.5
      vertex -1.5 0.5 1.5
    endloop
  endfacet
  facet normal 0 0 1
    outer loop
      vertex -0.5 1.5 1.5
      vertex 0.5 0.5 1.5
      vertex 0.5 1.5 1.5
    endloop
  endfacet
  facet normal 0 0 1
    outer loop
      vertex 1.5 -0.5 1.5
      vertex 1.5 0.5 1.5
      vertex 0.5 0.5 1.5
    endloop
  endfacet
  facet normal 0 0 1
    outer loop
      vertex 1.5 -0.5 1.5
      vertex -0.5 0.5 1.5
      vertex -1.5 0.5 1.5
    endloop
  endfacet
  facet normal 0 0 1
    outer loop
      vertex 1.5 -0.5 1.5
      vertex 0.5 0.5 1.5
      vertex -0.5 0.5 1.5
    endloop
  endfacet
  facet normal 0 0 1
    outer loop
      vertex -0.5 1.5 1.5
      vertex -0.5 0.5 1.5
      vertex 0.5 0.5 1.5
    endloop
  endfacet
  facet normal 1.22461e-016 1 0
    outer loop
      vertex -10.5 -0.5 0.5
      vertex -10.5 -0.5 10.5
      vertex -1.5 -0.5 0.5
    endloop
  endfacet
  facet normal 1.22461e-016 1 0
    outer loop
      vertex -1.5 -0.5 1.5
      vertex -10.5 -0.5 10.5
      vertex -0.5 -0.5 10.5
    endloop
  endfacet
  facet normal 1.22461e-016 1 0
    outer loop
      vertex -1.5 -0.5 0.5
      vertex -10.5 -0.5 10.5
      vertex -1.5 -0.5 1.5
    endloop
  endfacet
  facet normal 1.22461e-016 1 0
    outer loop
      vertex -1.5 -0.5 1.5
      vertex -0.5 -0.5 10.5
      vertex -0.5 -0.5 1.5
    endloop
  endfacet
  facet normal 0 0 -1
    outer loop
      vertex -10.5 -10.5 0.5
      vertex -10.5 -0.5 0.5
      vertex -0.5 -10.5 0.5
    endloop
  endfacet
  facet normal 0 0 -1
    outer loop
      vertex -1.5 -1.5 0.5
      vertex -10.5 -0.5 0.5
      vertex -1.5 -0.5 0.5
    endloop
  endfacet
  facet normal 0 0 -1
    outer loop
      vertex -0.5 -10.5 0.5
      vertex -10.5 -0.5 0.5
      vertex -1.5 -1.5 0.5
    endloop
  endfacet
  facet normal 0 0 -1
    outer loop
      vertex -0.5 -1.5 0.5
      vertex -0.5 -10.5 0.5
      vertex -1.5 -1.5 0.5
    endloop
  endfacet
  facet normal 1 -1.22461e-016 0
    outer loop
      vertex -0.5 -10.5 10.5
      vertex -0.5 -10.5 0.5
      vertex -0.5 -1.5 0.5
    endloop
  endfacet
  facet normal 1 -1.22461e-016 0
    outer loop
      vertex -0.5 -0.5 1.5
      vertex -0.5 -10.5 10.5
      vertex -0.5 -1.5 1.5
    endloop
  endfacet
  facet normal 1 -1.22461e-016 0
    outer loop
      vertex -0.5 -1.5 1.5
      vertex -0.5 -10.5 10.5
      vertex -0.5 -1.5 0.5
    endloop
  endfacet
  facet normal 1 -1.22461e-016 0
    outer loop
      vertex -0.5 -0.5 10.5
      vertex -0.5 -10.5 10.5
      vertex -0.5 -0.5 1.5
    endloop
  endfacet
  facet normal -1 2.22045e-016 0
    outer loop
      vertex 0.5 -10.5 0.5
      vertex 0.5 -10.5 10.5
      vertex 0.5 -1.5 0.5
    endloop
  endfacet
  facet normal -1 2.22045e-016 0
    outer loop
      vertex 0.5 -1.5 1.5
      vertex 0.5 -10.5 10.5
      vertex 0.5 -0.5 10.5
    endloop
  endfacet
  facet normal -1 2.22045e-016 0
    outer loop
      vertex 0.5 -1.5 0.5
      vertex 0.5 -10.5 10.5
      vertex 0.5 -1.5 1.5
    endloop
  endfacet
  facet normal -1 2.22045e-016 0
    outer loop
      vertex 0.5 -1.5 1.5
      vertex 0.5 -0.5 10.5
      vertex 0.5 -0.5 1.5
    endloop
  endfacet
  facet normal 0 0 -1
    outer loop
      vertex 0.5 -10.5 0.5
      vertex 0.5 -1.5 0.5
      vertex 10.5 -10.5 0.5
    endloop
  endfacet
  facet normal 0 0 -1
    outer loop
      vertex 10.5 -10.5 0.5
      vertex 0.5 -1.5 0.5
      vertex 1.5 -1.5 0.5
    endloop
  endfacet
  facet normal 0 0 -1
    outer loop
      vertex 10.5 -10.5 0.5
      vertex 1.5 -1.5 0.5
      vertex 1.5 -0.5 0.5
    endloop
  endfacet
  facet normal 0 0 -1
    outer loop
      vertex 10.5 -10.5 0.5
      vertex 1.5 -0.5 0.5
      vertex 10.5 -0.5 0.5
    endloop
  endfacet
  facet normal 1 0 0
    outer loop
      vertex 1.5 0.5 -0.5
      vertex 1.5 1.5 -0.5
      vertex 1.5 -1.5 0.5
    endloop
  endfacet
  facet normal 1 0 0
    outer loop
      vertex 1.5 -1.5 0.5
      vertex 1.5 -1.5 -0.5
      vertex 1.5 -0.5 -0.5
    endloop
  endfacet
  facet normal 1 0 0
    outer loop
      vertex 1.5 0.5 -1.5
      vertex 1.5 -1.5 0.5
      vertex 1.5 -0.5 -0.5
    endloop
  endfacet
  facet normal 1 0 0
    outer loop
      vertex 1.5 -0.5 -1.5
      vertex 1.5 0.5 -1.5
      vertex 1.5 -0.5 -0.5
    endloop
  endfacet
  facet normal 1 0 0
    outer loop
      vertex 1.5 0.5 -1.5
      vertex 1.5 0.5 -0.5
      vertex 1.5 -1.5 0.5
    endloop
  endfacet
  facet normal 1 0 0
    outer loop
      vertex 1.5 1.5 -0.5
      vertex 1.5 0.5 0.5
      vertex 1.5 -0.5 0.5
    endloop
  endfacet
  facet normal 1 0 0
    outer loop
      vertex 1.5 1.5 -0.5
      vertex 1.5 1.5 0.5
      vertex 1.5 0.5 0.5
    endloop
  endfacet
  facet normal 1 0 0
    outer loop
      vertex 1.5 1.5 -0.5
      vertex 1.5 -0.5 0.5
      vertex 1.5 -1.5 0.5
    endloop
  endfacet
  facet normal 1 0 0
    outer loop
      vertex 1.5 0.5 0.5
      vertex 1.5 0.5 1.5
      vertex 1.5 -0.5 0.5
    endloop
  endfacet
  facet normal 1 0 0
    outer loop
      vertex 1.5 -0.5 1.5
      vertex 1.5 -0.5 0.5
      vertex 1.5 0.5 1.5
    endloop
  endfacet
  facet normal 1.22461e-016 -1.49966e-032 1
    outer loop
      vertex 0.5 -1.5 -0.5
      vertex 0.5 -10.5 -0.5
      vertex 10.5 -10.5 -0.5
    endloop
  endfacet
  facet normal 1.22461e-016 -1.49966e-032 1
    outer loop
      vertex 1.5 -1.5 -0.5
      vertex 0.5 -1.5 -0.5
      vertex 10.5 -10.5 -0.5
    endloop
  endfacet
  facet normal 1.22461e-016 -1.49966e-032 1
    outer loop
      vertex 10.5 -0.5 -0.5
      vertex 1.5 -1.5 -0.5
      vertex 10.5 -10.5 -0.5
    endloop
  endfacet
  facet normal 1.22461e-016 -1.49966e-032 1
    outer loop
      vertex 1.5 -0.5 -0.5
      vertex 1.5 -1.5 -0.5
      vertex 10.5 -0.5 -0.5
    endloop
  endfacet
  facet normal -1 1.22461e-016 1.22461e-016
    outer loop
      vertex 0.5 -10.5 -10.5
      vertex 0.5 -10.5 -0.5
      vertex 0.5 -0.5 -10.5
    endloop
  endfacet
  facet normal -1 1.22461e-016 1.22461e-016
    outer loop
      vertex 0.5 -1.5 -1.5
      vertex 0.5 -10.5 -0.5
      vertex 0.5 -1.5 -0.5
    endloop
  endfacet
  facet normal -1 1.22461e-016 1.22461e-016
    outer loop
      vertex 0.5 -0.5 -10.5
      vertex 0.5 -10.5 -0.5
      vertex 0.5 -1.5 -1.5
    endloop
  endfacet
  facet normal -1 1.22461e-016 1.22461e-016
    outer loop
      vertex 0.5 -0.5 -1.5
      vertex 0.5 -0.5 -10.5
      vertex 0.5 -1.5 -1.5
    endloop
  endfacet
  facet normal 1.22461e-016 1 0
    outer loop
      vertex 0.5 -0.5 -10.5
      vertex 0.5 -0.5 -1.5
      vertex 10.5 -0.5 -10.5
    endloop
  endfacet
  facet normal 1.22461e-016 1 0
    outer loop
      vertex 10.5 -0.5 -10.5
      vertex 0.5 -0.5 -1.5
      vertex 1.5 -0.5 -1.5
    endloop
  endfacet
  facet normal 1.22461e-016 1 0
    outer loop
      vertex 10.5 -0.5 -10.5
      vertex 1.5 -0.5 -1.5
      vertex 1.5 -0.5 -0.5
    endloop
  endfacet
  facet normal 1.22461e-016 1 0
    outer loop
      vertex 10.5 -0.5 -10.5
      vertex 1.5 -0.5 -0.5
      vertex 10.5 -0.5 -0.5
    endloop
  endfacet
  facet normal -2.22045e-016 -1 1.22461e-016
    outer loop
      vertex 0.5 0.5 -1.5
      vertex 0.5 0.5 -10.5
      vertex 10.5 0.5 -10.5
    endloop
  endfacet
  facet normal -2.22045e-016 -1 1.22461e-016
    outer loop
      vertex 1.5 0.5 -1.5
      vertex 0.5 0.5 -1.5
      vertex 10.5 0.5 -10.5
    endloop
  endfacet
  facet normal -2.22045e-016 -1 1.22461e-016
    outer loop
      vertex 10.5 0.5 -0.5
      vertex 1.5 0.5 -1.5
      vertex 10.5 0.5 -10.5
    endloop
  endfacet
  facet normal -2.22045e-016 -1 1.22461e-016
    outer loop
      vertex 1.5 0.5 -0.5
      vertex 1.5 0.5 -1.5
      vertex 10.5 0.5 -0.5
    endloop
  endfacet
  facet normal -1 2.22045e-016 -2.53982e-033
    outer loop
      vertex 0.5 0.5 -10.5
      vertex 0.5 0.5 -1.5
      vertex 0.5 10.5 -10.5
    endloop
  endfacet
  facet normal -1 2.22045e-016 -2.53982e-033
    outer loop
      vertex 0.5 10.5 -10.5
      vertex 0.5 0.5 -1.5
      vertex 0.5 1.5 -1.5
    endloop
  endfacet
  facet normal -1 2.22045e-016 -2.53982e-033
    outer loop
      vertex 0.5 10.5 -10.5
      vertex 0.5 1.5 -1.5
      vertex 0.5 1.5 -0.5
    endloop
  endfacet
  facet normal -1 2.22045e-016 -2.53982e-033
    outer loop
      vertex 0.5 10.5 -10.5
      vertex 0.5 1.5 -0.5
      vertex 0.5 10.5 -0.5
    endloop
  endfacet
  facet normal 1 0 1.22461e-016
    outer loop
      vertex -0.5 10.5 -0.5
      vertex -0.5 1.5 -0.5
      vertex -0.5 1.5 -1.5
    endloop
  endfacet
  facet normal 1 0 1.22461e-016
    outer loop
      vertex -0.5 0.5 -10.5
      vertex -0.5 10.5 -0.5
      vertex -0.5 1.5 -1.5
    endloop
  endfacet
  facet normal 1 0 1.22461e-016
    outer loop
      vertex -0.5 0.5 -1.5
      vertex -0.5 0.5 -10.5
      vertex -0.5 1.5 -1.5
    endloop
  endfacet
  facet normal 1 0 1.22461e-016
    outer loop
      vertex -0.5 0.5 -10.5
      vertex -0.5 10.5 -10.5
      vertex -0.5 10.5 -0.5
    endloop
  endfacet
  facet normal 1.22461e-016 0 -1
    outer loop
      vertex -10.5 0.5 -10.5
      vertex -10.5 10.5 -10.5
      vertex -0.5 0.5 -10.5
    endloop
  endfacet
  facet normal 1.22461e-016 0 -1
    outer loop
      vertex -0.5 0.5 -10.5
      vertex -10.5 10.5 -10.5
      vertex -0.5 10.5 -10.5
    endloop
  endfacet
  facet normal -1 0 -1.22461e-016
    outer loop
      vertex -10.5 0.5 -0.5
      vertex -10.5 10.5 -0.5
      vertex -10.5 0.5 -10.5
    endloop
  endfacet
  facet normal -1 0 -1.22461e-016
    outer loop
      vertex -10.5 0.5 -10.5
      vertex -10.5 10.5 -0.5
      vertex -10.5 10.5 -10.5
    endloop
  endfacet
  facet normal 0 1 0
    outer loop
      vertex -10.5 10.5 -0.5
      vertex -0.5 10.5 -0.5
      vertex -10.5 10.5 -10.5
    endloop
  endfacet
  facet normal 0 1 0
    outer loop
      vertex -10.5 10.5 -10.5
      vertex -0.5 10.5 -0.5
      vertex -0.5 10.5 -10.5
    endloop
  endfacet
  facet normal 2.71917e-032 1.22461e-016 1
    outer loop
      vertex 0.5 10.5 -0.5
      vertex 0.5 1.5 -0.5
      vertex 1.5 1.5 -0.5
    endloop
  endfacet
  facet normal 2.71917e-032 1.22461e-016 1
    outer loop
      vertex 10.5 0.5 -0.5
      vertex 0.5 10.5 -0.5
      vertex 1.5 1.5 -0.5
    endloop
  endfacet
  facet normal 2.71917e-032 1.22461e-016 1
    outer loop
      vertex 1.5 0.5 -0.5
      vertex 10.5 0.5 -0.5
      vertex 1.5 1.5 -0.5
    endloop
  endfacet
  facet normal 2.71917e-032 1.22461e-016 1
    outer loop
      vertex 10.5 0.5 -0.5
      vertex 10.5 10.5 -0.5
      vertex 0.5 10.5 -0.5
    endloop
  endfacet
  facet normal 0 0 -1
    outer loop
      vertex 0.5 1.5 0.5
      vertex 0.5 10.5 0.5
      vertex 1.5 1.5 0.5
    endloop
  endfacet
  facet normal 0 0 -1
    outer loop
      vertex 1.5 1.5 0.5
      vertex 0.5 10.5 0.5
      vertex 10.5 10.5 0.5
    endloop
  endfacet
  facet normal 0 0 -1
    outer loop
      vertex 1.5 1.5 0.5
      vertex 10.5 10.5 0.5
      vertex 10.5 0.5 0.5
    endloop
  endfacet
  facet normal 0 0 -1
    outer loop
      vertex 1.5 1.5 0.5
      vertex 10.5 0.5 0.5
      vertex 1.5 0.5 0.5
    endloop
  endfacet
  facet normal -1 0 0
    outer loop
      vertex 0.5 0.5 1.5
      vertex 0.5 0.5 10.5
      vertex 0.5 1.5 1.5
    endloop
  endfacet
  facet normal -1 0 0
    outer loop
      vertex 0.5 1.5 1.5
      vertex 0.5 0.5 10.5
      vertex 0.5 10.5 10.5
    endloop
  endfacet
  facet normal -1 0 0
    outer loop
      vertex 0.5 1.5 1.5
      vertex 0.5 10.5 10.5
      vertex 0.5 10.5 0.5
    endloop
  endfacet
  facet normal -1 0 0
    outer loop
      vertex 0.5 1.5 1.5
      vertex 0.5 10.5 0.5
      vertex 0.5 1.5 0.5
    endloop
  endfacet
  facet normal 1 -2.22045e-016 0
    outer loop
      vertex -0.5 0.5 10.5
      vertex -0.5 0.5 1.5
      vertex -0.5 1.5 1.5
    endloop
  endfacet
  facet normal 1 -2.22045e-016 0
    outer loop
      vertex -0.5 10.5 0.5
      vertex -0.5 0.5 10.5
      vertex -0.5 1.5 1.5
    endloop
  endfacet
  facet normal 1 -2.22045e-016 0
    outer loop
      vertex -0.5 1.5 0.5
      vertex -0.5 10.5 0.5
      vertex -0.5 1.5 1.5
    endloop
  endfacet
  facet normal 1 -2.22045e-016 0
    outer loop
      vertex -0.5 10.5 0.5
      vertex -0.5 10.5 10.5
      vertex -0.5 0.5 10.5
    endloop
  endfacet
  facet normal 2.22045e-016 1 0
    outer loop
      vertex -10.5 10.5 0.5
      vertex -10.5 10.5 10.5
      vertex -0.5 10.5 0.5
    endloop
  endfacet
  facet normal 2.22045e-016 1 0
    outer loop
      vertex -0.5 10.5 0.5
      vertex -10.5 10.5 10.5
      vertex -0.5 10.5 10.5
    endloop
  endfacet
  facet normal -1 2.22045e-016 0
    outer loop
      vertex -10.5 0.5 0.5
      vertex -10.5 0.5 10.5
      vertex -10.5 10.5 0.5
    endloop
  endfacet
  facet normal -1 2.22045e-016 0
    outer loop
      vertex -10.5 10.5 0.5
      vertex -10.5 0.5 10.5
      vertex -10.5 10.5 10.5
    endloop
  endfacet
  facet normal 0 0 1
    outer loop
      vertex -10.5 10.5 10.5
      vertex -10.5 0.5 10.5
      vertex -0.5 0.5 10.5
    endloop
  endfacet
  facet normal 0 0 1
    outer loop
      vertex -0.5 10.5 10.5
      vertex -10.5 10.5 10.5
      vertex -0.5 0.5 10.5
    endloop
  endfacet
  facet normal 0 -1 0
    outer loop
      vertex 0.5 0.5 10.5
      vertex 0.5 0.5 1.5
      vertex 1.5 0.5 1.5
    endloop
  endfacet
  facet normal 0 -1 0
    outer loop
      vertex 10.5 0.5 0.5
      vertex 0.5 0.5 10.5
      vertex 1.5 0.5 1.5
    endloop
  endfacet
  facet normal 0 -1 0
    outer loop
      vertex 1.5 0.5 0.5
      vertex 10.5 0.5 0.5
      vertex 1.5 0.5 1.5
    endloop
  endfacet
  facet normal 0 -1 0
    outer loop
      vertex 10.5 0.5 0.5
      vertex 10.5 0.5 10.5
      vertex 0.5 0.5 10.5
    endloop
  endfacet
  facet normal 2.22045e-016 1 0
    outer loop
      vertex 0.5 -0.5 1.5
      vertex 0.5 -0.5 10.5
      vertex 1.5 -0.5 1.5
    endloop
  endfacet
  facet normal 2.22045e-016 1 0
    outer loop
      vertex 1.5 -0.5 1.5
      vertex 0.5 -0.5 10.5
      vertex 10.5 -0.5 10.5
    endloop
  endfacet
  facet normal 2.22045e-016 1 0
    outer loop
      vertex 1.5 -0.5 1.5
      vertex 10.5 -0.5 10.5
      vertex 10.5 -0.5 0.5
    endloop
  endfacet
  facet normal 2.22045e-016 1 0
    outer loop
      vertex 1.5 -0.5 1.5
      vertex 10.5 -0.5 0.5
      vertex 1.5 -0.5 0.5
    endloop
  endfacet
  facet normal 0 0 1
    outer loop
      vertex -10.5 -0.5 10.5
      vertex -10.5 -10.5 10.5
      vertex -0.5 -10.5 10.5
    endloop
  endfacet
  facet normal 0 0 1
    outer loop
      vertex -0.5 -0.5 10.5
      vertex -10.5 -0.5 10.5
      vertex -0.5 -10.5 10.5
    endloop
  endfacet
  facet normal -1 1.22461e-016 0
    outer loop
      vertex -10.5 -10.5 0.5
      vertex -10.5 -10.5 10.5
      vertex -10.5 -0.5 0.5
    endloop
  endfacet
  facet normal -1 1.22461e-016 0
    outer loop
      vertex -10.5 -0.5 0.5
      vertex -10.5 -10.5 10.5
      vertex -10.5 -0.5 10.5
    endloop
  endfacet
  facet normal -1.22461e-016 -1 0
    outer loop
      vertex -10.5 -10.5 10.5
      vertex -10.5 -10.5 0.5
      vertex -0.5 -10.5 0.5
    endloop
  endfacet
  facet normal -1.22461e-016 -1 0
    outer loop
      vertex -0.5 -10.5 10.5
      vertex -10.5 -10.5 10.5
      vertex -0.5 -10.5 0.5
    endloop
  endfacet
  facet normal 0 0 1
    outer loop
      vertex 0.5 -0.5 10.5
      vertex 0.5 -10.5 10.5
      vertex 10.5 -10.5 10.5
    endloop
  endfacet
  facet normal 0 0 1
    outer loop
      vertex 10.5 -0.5 10.5
      vertex 0.5 -0.5 10.5
      vertex 10.5 -10.5 10.5
    endloop
  endfacet
  facet normal -2.22045e-016 -1 0
    outer loop
      vertex 0.5 -10.5 10.5
      vertex 0.5 -10.5 0.5
      vertex 10.5 -10.5 0.5
    endloop
  endfacet
  facet normal -2.22045e-016 -1 0
    outer loop
      vertex 10.5 -10.5 10.5
      vertex 0.5 -10.5 10.5
      vertex 10.5 -10.5 0.5
    endloop
  endfacet
  facet normal 1 -2.22045e-016 0
    outer loop
      vertex 10.5 -10.5 10.5
      vertex 10.5 -10.5 0.5
      vertex 10.5 -0.5 0.5
    endloop
  endfacet
  facet normal 1 -2.22045e-016 0
    outer loop
      vertex 10.5 -0.5 10.5
      vertex 10.5 -10.5 10.5
      vertex 10.5 -0.5 0.5
    endloop
  endfacet
  facet normal 1 -1.22461e-016 -1.22461e-016
    outer loop
      vertex 10.5 -10.5 -0.5
      vertex 10.5 -10.5 -10.5
      vertex 10.5 -0.5 -10.5
    endloop
  endfacet
  facet normal 1 -1.22461e-016 -1.22461e-016
    outer loop
      vertex 10.5 -0.5 -0.5
      vertex 10.5 -10.5 -0.5
      vertex 10.5 -0.5 -10.5
    endloop
  endfacet
  facet normal -1.22461e-016 -1 0
    outer loop
      vertex 0.5 -10.5 -0.5
      vertex 0.5 -10.5 -10.5
      vertex 10.5 -10.5 -10.5
    endloop
  endfacet
  facet normal -1.22461e-016 -1 0
    outer loop
      vertex 10.5 -10.5 -0.5
      vertex 0.5 -10.5 -0.5
      vertex 10.5 -10.5 -10.5
    endloop
  endfacet
  facet normal -1.22461e-016 1.49966e-032 -1
    outer loop
      vertex 0.5 -10.5 -10.5
      vertex 0.5 -0.5 -10.5
      vertex 10.5 -10.5 -10.5
    endloop
  endfacet
  facet normal -1.22461e-016 1.49966e-032 -1
    outer loop
      vertex 10.5 -10.5 -10.5
      vertex 0.5 -0.5 -10.5
      vertex 10.5 -0.5 -10.5
    endloop
  endfacet
  facet normal 1 -2.22045e-016 2.53982e-033
    outer loop
      vertex 10.5 0.5 -0.5
      vertex 10.5 0.5 -10.5
      vertex 10.5 10.5 -10.5
    endloop
  endfacet
  facet normal 1 -2.22045e-016 2.53982e-033
    outer loop
      vertex 10.5 10.5 -0.5
      vertex 10.5 0.5 -0.5
      vertex 10.5 10.5 -10.5
    endloop
  endfacet
  facet normal -2.71917e-032 -1.22461e-016 -1
    outer loop
      vertex 0.5 0.5 -10.5
      vertex 0.5 10.5 -10.5
      vertex 10.5 0.5 -10.5
    endloop
  endfacet
  facet normal -2.71917e-032 -1.22461e-016 -1
    outer loop
      vertex 10.5 0.5 -10.5
      vertex 0.5 10.5 -10.5
      vertex 10.5 10.5 -10.5
    endloop
  endfacet
  facet normal 2.22045e-016 1 -1.22461e-016
    outer loop
      vertex 0.5 10.5 -10.5
      vertex 0.5 10.5 -0.5
      vertex 10.5 10.5 -10.5
    endloop
  endfacet
  facet normal 2.22045e-016 1 -1.22461e-016
    outer loop
      vertex 10.5 10.5 -10.5
      vertex 0.5 10.5 -0.5
      vertex 10.5 10.5 -0.5
    endloop
  endfacet
  facet normal 1 0 0
    outer loop
      vertex 10.5 0.5 10.5
      vertex 10.5 0.5 0.5
      vertex 10.5 10.5 0.5
    endloop
  endfacet
  facet normal 1 0 0
    outer loop
      vertex 10.5 10.5 10.5
      vertex 10.5 0.5 10.5
      vertex 10.5 10.5 0.5
    endloop
  endfacet
  facet normal 0 1 0
    outer loop
      vertex 0.5 10.5 0.5
      vertex 0.5 10.5 10.5
      vertex 10.5 10.5 0.5
    endloop
  endfacet
  facet normal 0 1 0
    outer loop
      vertex 10.5 10.5 0.5
      vertex 0.5 10.5 10.5
      vertex 10.5 10.5 10.5
    endloop
  endfacet
  facet normal 0 0 1
    outer loop
      vertex 0.5 10.5 10.5
      vertex 0.5 0.5 10.5
      vertex 10.5 0.5 10.5
    endloop
  endfacet
  facet normal 0 0 1
    outer loop
      vertex 10.5 10.5 10.5
      vertex 0.5 10.5 10.5
      vertex 10.5 0.5 10.5
    endloop
  endfacet
endsolid OpenSCAD_Model
